<svg width="42" height="34" viewBox="0 0 42 34" fill="none" xmlns="http://www.w3.org/2000/svg">
    <g filter="url(#filter0_d)">
        <path d="M32.1686 2.90394C29.7466 1.79126 27.1494 0.971488 24.4338 0.50197C24.3844 0.492908 24.335 0.515553 24.3095 0.560845C23.9755 1.15567 23.6055 1.93166 23.3464 2.54159C20.4256 2.10378 17.5199 2.10378 14.659 2.54159C14.3999 1.9181 14.0164 1.15567 13.6809 0.560845C13.6554 0.517064 13.606 0.494419 13.5566 0.50197C10.8425 0.969988 8.2453 1.78976 5.82181 2.90394C5.80083 2.913 5.78285 2.92811 5.77092 2.94772C0.844537 10.3167 -0.505005 17.5045 0.157035 24.6032C0.160031 24.638 0.179502 24.6712 0.206464 24.6923C3.45675 27.0822 6.6052 28.533 9.69519 29.4947C9.74465 29.5098 9.79704 29.4917 9.82851 29.4509C10.5595 28.4515 11.211 27.3977 11.7697 26.2896C11.8026 26.2247 11.7712 26.1477 11.7038 26.122C10.6703 25.7295 9.6862 25.2509 8.73957 24.7074C8.6647 24.6636 8.6587 24.5564 8.72758 24.5051C8.92679 24.3556 9.12605 24.2001 9.31626 24.0431C9.35068 24.0144 9.39863 24.0084 9.43909 24.0265C15.658 26.8693 22.3908 26.8693 28.5363 24.0265C28.5768 24.0069 28.6248 24.0129 28.6607 24.0416C28.8509 24.1986 29.0501 24.3556 29.2508 24.5051C29.3197 24.5564 29.3152 24.6636 29.2404 24.7074C28.2937 25.2614 27.3096 25.7295 26.2746 26.1205C26.2073 26.1462 26.1773 26.2247 26.2103 26.2896C26.7809 27.3962 27.4325 28.45 28.1499 29.4494C28.1799 29.4917 28.2338 29.5098 28.2832 29.4947C31.3882 28.533 34.5366 27.0822 37.7869 24.6923C37.8154 24.6712 37.8334 24.6395 37.8364 24.6047C38.6287 16.3978 36.5093 9.26895 32.218 2.94922C32.2075 2.92811 32.1896 2.913 32.1686 2.90394ZM12.6984 20.2809C10.826 20.2809 9.28329 18.5598 9.28329 16.4462C9.28329 14.3325 10.7961 12.6115 12.6984 12.6115C14.6155 12.6115 16.1434 14.3477 16.1134 16.4462C16.1134 18.5598 14.6006 20.2809 12.6984 20.2809ZM25.325 20.2809C23.4527 20.2809 21.91 18.5598 21.91 16.4462C21.91 14.3325 23.4228 12.6115 25.325 12.6115C27.2423 12.6115 28.77 14.3477 28.7401 16.4462C28.7401 18.5598 27.2423 20.2809 25.325 20.2809Z" fill="white"/>
    </g>
    <defs>
        <filter id="filter0_d" x="0" y="0.5" width="42" height="33" filterUnits="userSpaceOnUse" color-interpolation-filters="sRGB">
            <feFlood flood-opacity="0" result="BackgroundImageFix"/>
            <feColorMatrix in="SourceAlpha" type="matrix" values="0 0 0 0 0 0 0 0 0 0 0 0 0 0 0 0 0 0 127 0" result="hardAlpha"/>
            <feOffset dx="4" dy="4"/>
            <feComposite in2="hardAlpha" operator="out"/>
            <feColorMatrix type="matrix" values="0 0 0 0 0.0375 0 0 0 0 0.0375 0 0 0 0 0.0375 0 0 0 1 0"/>
            <feBlend mode="normal" in2="BackgroundImageFix" result="effect1_dropShadow"/>
            <feBlend mode="normal" in="SourceGraphic" in2="effect1_dropShadow" result="shape"/>
        </filter>
    </defs>
</svg>