
<svg width="46" height="34" viewBox="0 0 46 34" fill="none" xmlns="http://www.w3.org/2000/svg">
    <g filter="url(#filter0_d)">
        <path d="M40.7904 5.04121C40.5529 4.16344 40.0896 3.36322 39.4466 2.72022C38.8036 2.07722 38.0033 1.61389 37.1256 1.37637C33.9122 0.5 20.9791 0.5 20.9791 0.5C20.9791 0.5 8.04591 0.526557 4.83254 1.40293C3.95477 1.64045 3.15455 2.10378 2.51155 2.74678C1.86855 3.38977 1.40522 4.19 1.1677 5.06777C0.195726 10.7775 -0.18138 19.4775 1.19426 24.9588C1.43178 25.8366 1.89511 26.6368 2.53811 27.2798C3.1811 27.9228 3.98133 28.3861 4.8591 28.6236C8.07247 29.5 21.0056 29.5 21.0056 29.5C21.0056 29.5 33.9388 29.5 37.1521 28.6236C38.0299 28.3861 38.8301 27.9228 39.4731 27.2798C40.1161 26.6368 40.5795 25.8366 40.817 24.9588C41.8421 19.2411 42.1581 10.5464 40.7904 5.04121Z" fill="white"/>
    </g>
    <path d="M16.8628 21.2142L27.5917 14.9999L16.8628 8.78564V21.2142Z" fill="#2C354D"/>
    <defs>
        <filter id="filter0_d" x="0.295776" y="0.5" width="45.4085" height="33" filterUnits="userSpaceOnUse" color-interpolation-filters="sRGB">
            <feFlood flood-opacity="0" result="BackgroundImageFix"/>
            <feColorMatrix in="SourceAlpha" type="matrix" values="0 0 0 0 0 0 0 0 0 0 0 0 0 0 0 0 0 0 127 0" result="hardAlpha"/>
            <feOffset dx="4" dy="4"/>
            <feComposite in2="hardAlpha" operator="out"/>
            <feColorMatrix type="matrix" values="0 0 0 0 0.0375 0 0 0 0 0.0375 0 0 0 0 0.0375 0 0 0 1 0"/>
            <feBlend mode="normal" in2="BackgroundImageFix" result="effect1_dropShadow"/>
            <feBlend mode="normal" in="SourceGraphic" in2="effect1_dropShadow" result="shape"/>
        </filter>
    </defs>
</svg>